<svg width="287" height="492" viewBox="0 0 287 492" fill="none" xmlns="http://www.w3.org/2000/svg">
<path fill-rule="evenodd" clip-rule="evenodd" d="M143.433 303.043C143.773 303.08 144.076 303.08 144.416 303.08C156.624 303.307 166.791 291.477 160.063 277.191C159.307 288.265 154.469 294.236 144.151 294.236C143.924 294.236 143.66 294.236 143.433 294.236C143.206 294.236 142.942 294.236 142.715 294.236C132.397 294.236 127.559 288.265 126.803 277.191C120.038 291.477 130.243 303.307 142.45 303.08C142.791 303.08 143.131 303.043 143.433 303.043ZM143.433 285.468C143.698 285.506 143.962 285.506 144.227 285.506C153.26 285.732 155.187 276.586 152.958 271.03C151.521 276.548 147.326 279.383 143.433 278.476C139.54 279.345 135.345 276.548 133.909 271.03C131.679 276.548 133.606 285.732 142.639 285.506C142.904 285.506 143.169 285.506 143.433 285.468ZM143.433 258.104C144.416 258.066 145.361 258.066 146.268 258.104C174.765 259.351 211.049 269.14 226.054 263.32C236.334 259.313 252.964 246.879 260.712 257.839C263.055 261.165 253.606 269.405 253.417 259.654C249.6 251.792 241.436 263.546 247.37 269.783C225.751 291.175 166.98 266.797 161.348 265.209C159.723 264.756 158.854 266.457 160.139 268.724C162.18 272.391 168.491 277.72 170.003 283.351C173.065 294.69 163.956 312.907 145.739 313.436C144.983 313.474 144.227 313.436 143.509 313.398C142.791 313.436 142.035 313.436 141.279 313.436C123.061 312.945 113.915 294.728 117.014 283.351C118.526 277.72 124.838 272.353 126.879 268.724C128.164 266.457 127.257 264.756 125.669 265.209C120.038 266.797 61.2662 291.175 39.6473 269.783C45.5811 263.546 37.4174 251.792 33.6 259.654C33.4111 269.405 23.9623 261.165 26.3056 257.839C34.0536 246.879 50.6457 259.351 60.9638 263.32C75.9308 269.14 112.252 259.351 140.712 258.104C141.581 258.066 142.526 258.066 143.547 258.104H143.433ZM143.433 224.315C141.846 224.088 139.994 224.769 139.88 226.318C138.028 241.814 139.691 239.546 134.324 246.047C126.728 255.269 119.282 254.476 107.339 255.118C96.0378 255.761 87.0426 256.517 85.1528 251.641C84.1323 249.071 90.4441 229.833 107.943 226.28C114.142 225.033 125.632 228.132 125.632 224.428C125.632 218.154 108.397 220.006 102.992 221.405C84.0189 226.28 68.0315 234.028 53.2914 255.383C81.1843 269.896 111.156 255.647 142.715 254.022C142.98 254.06 143.206 254.06 143.471 254.098C143.735 254.06 143.962 254.06 144.227 254.022C175.786 255.647 205.758 269.896 233.65 255.383C218.91 233.991 202.885 226.28 183.95 221.405C178.545 220.006 161.31 218.154 161.31 224.428C161.31 228.132 172.8 225.033 178.998 226.28C196.498 229.833 202.809 249.071 201.789 251.641C199.861 256.517 190.904 255.761 179.603 255.118C167.66 254.438 160.214 255.269 152.617 246.047C147.25 239.546 148.913 241.814 147.061 226.318C146.948 224.769 145.134 224.088 143.509 224.315H143.433ZM143.433 131.641C142.602 131.15 141.884 129.524 141.808 126.803C141.543 114.104 138.217 100.611 139.502 85.7953C140.032 80.5795 141.657 77.6693 143.433 76.989C145.209 77.6693 146.835 80.5795 147.364 85.7953C148.649 100.573 145.323 114.104 145.058 126.803C144.983 129.487 144.265 131.15 143.433 131.641ZM143.433 0C124.46 14.2866 94.3371 17.3858 94.8662 54.1606C94.5638 68.7496 101.329 76.9134 126.765 76.6488C134.362 76.5732 134.4 102.652 134.173 114.066C129.411 105.94 124.951 100.422 116.372 93.9213C96.7937 76.8378 87.5339 73.2094 87.5339 52.3087C87.5339 36.4346 91.4646 31.3701 99.7796 20.7118C70.4882 25.474 28.3843 50.5701 59.3386 80.9197C73.0583 94.2614 95.0552 83.4898 110.098 96.0756C118.677 102.312 134.967 121.096 134.967 134.022L135.383 141.619L134.06 175.748C133.909 177.751 131.376 177.335 131.339 175.559C131.339 138.709 111.685 112.554 77.3292 112.554C64.63 112.554 57.3355 115.2 43.956 114.671C31.3323 114.822 16.441 104.769 15.9497 94.1102C1.88981 107.603 4.00635 140.485 29.8205 137.764C46.4504 134.249 48.2646 118.224 72.189 118.224C87.2315 118.148 99.4016 118.488 111.269 130.847C116.447 136.252 120.907 141.392 123.817 160.101C124.082 164.372 122.306 164.22 121.285 161.877C112.403 141.77 103.181 136.894 86.8536 136.176C60.5859 136.025 37.9465 174.614 18.8599 174.614C10.1292 174.614 5.10241 171.175 0.0378418 164.334C0.491385 180.321 2.68351 195.213 19.956 195.364C30.5386 195.515 39.1182 182.513 44.863 173.14C54.7654 156.888 73.7386 137.915 94.4882 142.224C112.706 146.986 123.25 166.148 123.25 194.419C123.25 200.05 120.945 209.991 114.142 209.991C107.641 209.991 105.298 208.441 105.298 202.054C105.298 190.337 109.342 162.671 96.0378 162.671C88.7811 162.406 85.6063 166.639 85.3418 172.195C85.3796 178.318 97.5119 183.496 95.3197 173.934C94.6394 170.986 99.4394 169.776 99.704 174.236C99.4772 183.836 91.0489 182.702 91.9182 203.414C91.9182 219.326 104.542 216.038 121.058 216.113C134.589 217.739 129.789 232.252 120.302 232.29C115.616 232.479 114.066 229.644 110.967 229.191C108.359 228.813 105.789 229.569 105.222 231.458C103.786 239.32 115.011 241.474 123.893 241.474C130.243 241.814 121.436 246.879 117.09 246.992C114.066 247.068 114.217 250.167 116.939 250.205C132.435 249.751 133.493 239.131 136.554 224.844C136.819 221.14 139.2 219.515 143.509 219.326C147.817 219.553 150.161 221.14 150.463 224.844C153.487 239.131 154.545 249.789 170.079 250.205C172.8 250.129 172.951 247.068 169.928 246.992C165.581 246.841 156.775 241.776 163.124 241.474C172.044 241.474 183.269 239.282 181.795 231.458C181.228 229.569 178.658 228.85 176.05 229.191C172.913 229.644 171.402 232.479 166.715 232.29C157.191 232.252 152.391 217.739 165.959 216.113C182.476 216 195.099 219.288 195.099 203.414C195.969 182.74 187.54 183.836 187.313 174.236C187.578 169.776 192.378 170.986 191.698 173.934C189.506 183.496 201.638 178.318 201.676 172.195C201.411 166.639 198.236 162.406 190.98 162.671C177.676 162.671 181.72 190.337 181.72 202.054C181.72 208.403 179.376 209.991 172.876 209.991C166.072 209.991 163.767 200.05 163.767 194.419C163.767 166.148 174.312 147.024 192.529 142.224C213.279 137.915 232.252 156.888 242.154 173.14C247.861 182.513 256.479 195.515 267.061 195.364C284.296 195.213 286.526 180.321 286.98 164.334C281.915 171.175 276.888 174.614 268.158 174.614C249.071 174.614 226.432 136.025 200.164 136.176C183.836 136.857 174.614 141.77 165.732 161.877C164.712 164.22 162.935 164.409 163.2 160.101C166.11 141.392 170.532 136.29 175.748 130.847C187.578 118.488 199.786 118.11 214.828 118.224C238.715 118.224 240.567 134.249 257.197 137.764C283.049 140.485 285.128 107.603 271.068 94.1102C270.576 104.769 255.685 114.822 243.061 114.671C229.682 115.2 222.387 112.554 209.688 112.554C175.332 112.554 155.679 138.671 155.679 175.559C155.641 177.373 153.109 177.751 152.958 175.748L151.635 141.619L152.05 134.022C152.05 121.096 168.34 102.312 176.92 96.0756C191.962 83.4898 213.959 94.2614 227.679 80.9197C258.671 50.6079 216.529 25.5118 187.238 20.7118C195.553 31.3701 199.484 36.4346 199.484 52.3087C199.484 73.2094 190.224 76.8378 170.646 93.9213C162.066 100.422 157.606 105.94 152.844 114.066C152.617 102.614 152.617 76.5732 160.252 76.6488C185.65 76.8756 192.416 68.7118 192.151 54.1606C192.68 17.3858 162.558 14.2488 143.584 0H143.433ZM132.095 23.0929C125.216 25.0205 121.625 36.1323 122.154 47.6976C122.154 53.8205 127.332 61.9465 130.961 64.4787C128.466 57.789 124.762 41.8772 132.095 23.1307V23.0929ZM139.616 179.603C139.616 176.013 135.912 175.483 135.761 180.926C136.29 197.443 128.731 196.8 128.277 203.187C128.277 207.912 129.184 211.238 135.269 210.595C140.636 210.595 139.691 200.428 139.691 195.742L139.616 179.603ZM75.3638 94.6016C70.9418 101.783 56.9197 108.17 47.9245 108.17C15.1182 108.17 16.4032 72.6803 41.726 55.937C41.0835 80.126 53.3292 94.526 75.3638 94.6016ZM39.9497 141.997C35.9811 157.757 29.4426 167.622 16.0252 167.622C-1.88972 165.883 -0.944835 139.994 2.87249 130.054C11.83 146.23 26.5701 147.288 39.9497 141.997ZM114.028 198.576C117.317 198.274 118.526 201.713 117.317 204.094C116.107 206.476 112.706 206.211 111.232 203.868C110.098 202.091 110.816 198.69 114.028 198.576ZM25.663 218.457C18.2174 218.457 9.07091 206.627 8.05044 199.257C12.6615 201.26 18.293 203.452 23.9245 202.545C30.3497 201.26 30.6898 200.617 34.0914 196.044C40.1008 205.531 38.7024 218.457 25.663 218.457ZM38.6268 234.52C28.8378 237.506 21.6189 225.449 19.767 221.858C26.1922 225.827 38.589 225.638 41.1213 218.57C43.6158 225.298 45.0142 231.534 38.6268 234.52ZM42.1418 247.03C37.9843 246.312 35.452 244.422 34.6205 241.285C39.7229 242.079 45.1276 240.567 47.093 236.296C49.7386 240.945 49.0583 248.239 42.104 247.03H42.1418ZM89.6882 233.613C85.2662 237.883 80.9953 245.934 77.556 251.074C75.326 254.4 71.8111 253.228 72.7182 251.301C75.515 245.48 83.4898 235.54 89.6882 233.613ZM86.1733 230.816C81.8646 235.162 76.6489 240.302 75.515 241.625C68.4851 249.978 65.0079 254.854 63.0426 249.978C62.6268 248.995 66.5197 243.213 72.2268 238.98C76.7245 235.691 80.5796 232.403 86.1355 230.816H86.1733ZM116.372 307.654C109.758 311.169 92.9764 307.124 90.5197 298.961C100.271 294.198 105.071 290.457 112.365 284.674C112.101 295.559 113.235 299.074 116.372 307.654ZM62.8536 284.939C67.767 284.258 79.1056 284.976 86.3245 282.709C98.041 278.967 104.466 278.022 115.427 273.411C111.194 281.31 99.2126 288.454 95.3197 291.099C85.1906 299.792 64.8945 299.112 62.8914 284.939H62.8536ZM154.809 23.1307C161.688 25.0583 165.279 36.1701 164.75 47.7354C164.75 53.8583 159.572 61.9843 155.943 64.5165C158.438 57.8268 162.142 41.915 154.809 23.1685V23.1307ZM147.288 179.641C147.288 176.05 150.992 175.521 151.143 180.964C150.614 197.48 158.173 196.838 158.627 203.225C158.627 207.95 157.72 211.276 151.635 210.633C146.268 210.633 147.213 200.466 147.213 195.78L147.288 179.641ZM211.54 94.6394C215.962 101.82 229.984 108.208 238.98 108.208C271.786 108.208 270.501 72.7181 245.178 55.9748C245.821 80.1638 233.575 94.5638 211.54 94.6394ZM246.954 142.035C250.923 157.795 257.461 167.66 270.879 167.66C288.794 165.921 287.849 140.031 284.032 130.091C275.074 146.268 260.334 147.326 246.954 142.035ZM172.876 198.614C169.587 198.312 168.378 201.751 169.587 204.132C170.797 206.513 174.198 206.249 175.672 203.906C176.806 202.129 176.088 198.728 172.876 198.614ZM261.241 218.494C268.687 218.494 277.833 206.665 278.854 199.294C274.243 201.298 268.611 203.49 262.98 202.583C256.554 201.298 256.214 200.655 252.813 196.082C246.803 205.569 248.202 218.494 261.241 218.494ZM248.277 234.557C258.066 237.543 265.285 225.487 267.137 221.896C260.712 225.865 248.315 225.676 245.783 218.608C243.288 225.335 241.89 231.572 248.277 234.557ZM244.762 247.068C248.92 246.35 251.452 244.46 252.284 241.323C247.181 242.117 241.776 240.605 239.811 236.334C237.165 240.983 237.846 248.277 244.8 247.068H244.762ZM197.216 233.65C201.638 237.921 205.909 245.972 209.348 251.112C211.578 254.438 215.093 253.266 214.186 251.339C211.389 245.518 203.414 235.578 197.216 233.65ZM200.731 230.854C205.039 235.2 210.255 240.34 211.389 241.663C218.419 250.016 221.896 254.891 223.861 250.016C224.277 249.033 220.384 243.25 214.677 239.017C210.18 235.729 206.324 232.441 200.769 230.854H200.731ZM170.532 307.691C177.147 311.206 193.928 307.162 196.384 298.998C186.633 294.236 181.833 290.494 174.539 284.712C174.803 295.597 173.669 299.112 170.532 307.691ZM224.05 284.976C219.137 284.296 207.798 285.014 200.58 282.746C188.863 279.005 182.438 278.06 171.477 273.449C175.71 281.348 187.691 288.491 191.584 291.137C201.713 299.83 222.009 299.15 224.013 284.976H224.05Z" fill="white"/>
<path d="M4.04419 349.757C4.04419 355.767 5.556 358.828 7.59694 360.718C10.5072 363.439 14.3245 363.59 16.441 363.59C19.0111 363.59 21.8836 363.137 24.7182 360.605C28.082 357.619 28.4977 352.743 28.4977 348.17V343.748C28.4977 337.474 28.4977 336.302 28.5733 334.979C28.6489 333.543 28.9513 332.825 30.0473 332.636C30.5387 332.561 30.7654 332.523 31.219 332.523C31.7103 332.523 31.9371 332.447 31.9371 332.145C31.9371 331.842 31.6725 331.767 31.1056 331.767C29.556 331.767 27.0615 331.88 26.5702 331.88C26.5324 331.88 24.0379 331.767 21.9969 331.767C21.43 331.767 21.1654 331.842 21.1654 332.145C21.1654 332.447 21.3922 332.523 21.8458 332.523C22.2993 332.523 22.9418 332.561 23.282 332.636C24.6048 332.939 24.9072 333.581 24.9828 334.979C25.0584 336.302 25.0584 337.474 25.0584 343.748V348.926C25.0584 353.197 24.945 356.901 22.7528 359.206C21.1654 360.869 19.0111 361.436 17.2725 361.436C15.9119 361.436 14.0977 361.285 12.2836 359.735C10.3182 358.072 9.18434 355.54 9.18434 349.568V343.786C9.18434 337.512 9.18434 336.34 9.25994 335.017C9.33553 333.581 9.67568 332.863 10.734 332.674C11.2253 332.598 11.4521 332.561 11.9056 332.561C12.3214 332.561 12.5481 332.485 12.5481 332.183C12.5481 331.88 12.2836 331.805 11.6788 331.805C10.2426 331.805 7.74812 331.918 6.76545 331.918C5.556 331.918 3.06151 331.805 0.944975 331.805C0.340251 331.805 0.0756836 331.88 0.0756836 332.183C0.0756836 332.485 0.302455 332.561 0.755999 332.561C1.32293 332.561 2.00324 332.598 2.3056 332.674C3.62844 332.976 3.9308 333.619 4.00639 335.017C4.08198 336.34 4.08198 337.512 4.08198 343.786V349.833L4.04419 349.757ZM216.265 409.739C218.381 409.739 220.611 409.361 222.576 408.038C225.449 406.11 226.318 403.238 226.318 400.857C226.318 396.926 224.617 394.091 219.78 390.312L218.684 389.442C215.395 386.835 214.45 385.398 214.45 383.471C214.45 380.976 216.227 379.2 219.175 379.2C221.745 379.2 222.917 380.447 223.521 381.241C224.353 382.299 224.542 383.584 224.542 383.962C224.542 384.453 224.655 384.718 224.958 384.718C225.26 384.718 225.411 384.378 225.411 383.471C225.411 380.258 225.562 379.049 225.562 378.52C225.562 378.217 225.373 378.104 224.995 378.028C223.975 377.726 222.274 377.31 219.704 377.31C214.186 377.31 210.52 380.598 210.52 385.134C210.52 388.498 212.032 391.37 216.416 394.923L218.23 396.397C221.518 399.08 222.123 401.008 222.123 403.011C222.123 405.203 220.384 407.735 216.794 407.735C214.337 407.735 211.994 406.602 211.087 403.54C210.898 402.822 210.709 401.953 210.709 401.424C210.709 401.083 210.671 400.705 210.293 400.705C209.991 400.705 209.877 401.159 209.802 401.802C209.764 402.482 209.613 404.939 209.613 407.206C209.613 408.113 209.726 408.34 210.369 408.605C212.069 409.398 213.884 409.701 216.189 409.701L216.265 409.739ZM235.805 397.153C235.805 401.159 235.805 404.447 235.616 406.186C235.502 407.395 235.276 408.076 234.444 408.264C234.066 408.34 233.613 408.416 233.008 408.416C232.517 408.416 232.365 408.529 232.365 408.756C232.365 409.058 232.63 409.172 233.159 409.172C234.747 409.172 237.241 409.058 238.186 409.058C239.282 409.058 241.776 409.172 244.384 409.172C244.838 409.172 245.14 409.058 245.14 408.756C245.14 408.529 244.951 408.416 244.498 408.416C243.893 408.416 243.024 408.34 242.457 408.264C241.247 408.113 240.983 407.357 240.869 406.224C240.718 404.447 240.718 401.159 240.718 397.153V389.858C240.718 383.584 240.718 382.413 240.794 381.09C240.869 379.653 241.21 378.935 242.268 378.746C242.759 378.671 243.062 378.633 243.477 378.633C243.893 378.633 244.12 378.557 244.12 378.217C244.12 377.99 243.817 377.877 243.288 377.877C241.776 377.877 239.433 377.99 238.45 377.99C237.279 377.99 234.784 377.877 233.273 377.877C232.63 377.877 232.328 377.953 232.328 378.217C232.328 378.557 232.554 378.633 232.97 378.633C233.462 378.633 233.953 378.671 234.406 378.784C235.276 378.973 235.691 379.691 235.767 381.09C235.843 382.413 235.843 383.584 235.843 389.858V397.153H235.805ZM264.265 398.362C264.454 398.362 264.567 398.438 264.68 398.664L267.855 407.433C268.044 407.924 267.78 408.302 267.477 408.378C267.062 408.416 266.91 408.491 266.91 408.756C266.91 409.058 267.402 409.058 268.12 409.096C271.295 409.172 274.205 409.172 275.641 409.172C277.115 409.172 277.455 409.096 277.455 408.756C277.455 408.453 277.266 408.416 276.926 408.416C276.435 408.416 275.868 408.378 275.263 408.264C274.432 408 273.26 407.433 271.748 403.729C269.216 397.455 262.828 380.598 261.884 378.293C261.506 377.348 261.241 376.97 260.901 376.97C260.485 376.97 260.258 377.424 259.767 378.633L249.789 404.598C248.995 406.677 248.239 408.076 246.387 408.302C246.085 408.34 245.518 408.378 245.14 408.378C244.838 408.378 244.649 408.453 244.649 408.718C244.649 409.058 244.876 409.134 245.405 409.134C247.484 409.134 249.676 409.02 250.091 409.02C251.339 409.02 253.039 409.134 254.325 409.134C254.778 409.134 255.005 409.058 255.005 408.718C255.005 408.453 254.891 408.378 254.4 408.378H253.795C252.548 408.378 252.208 407.849 252.208 407.093C252.208 406.602 252.397 405.619 252.813 404.561L254.967 398.664C255.043 398.4 255.118 398.324 255.345 398.324H264.227L264.265 398.362ZM256.176 396.283C256.025 396.283 255.987 396.17 256.025 395.981L259.691 385.814C259.729 385.663 259.805 385.436 259.918 385.436C260.032 385.436 260.069 385.625 260.107 385.814L263.698 396.019C263.736 396.132 263.698 396.283 263.509 396.283H256.176ZM41.4615 339.968H41.5749C42.293 340.762 46.7151 345.94 51.0615 350.4C55.1812 354.671 60.2836 360.076 62.778 362.57C63.2316 363.024 63.6851 363.477 64.1387 363.477C64.5166 363.477 64.6678 363.099 64.6678 362.192L65.1214 336.076C65.1591 333.77 65.4993 332.901 66.5954 332.561C67.0867 332.447 67.3891 332.447 67.8048 332.447C68.2962 332.447 68.5229 332.334 68.5229 332.069C68.5229 331.729 68.145 331.691 67.6158 331.691C65.6505 331.691 64.1387 331.805 63.7229 331.805C62.8914 331.805 60.9639 331.691 58.9229 331.691C58.3182 331.691 57.9025 331.729 57.9025 332.069C57.9025 332.334 58.0536 332.447 58.545 332.447C59.1119 332.447 60.0568 332.447 60.6615 332.712C61.6064 333.127 61.9843 333.921 62.0221 336.416L62.4379 354.973H62.2489C61.5686 354.293 56.2017 348.359 53.4804 345.562C47.6599 339.553 41.6127 332.825 41.1591 332.296C40.4788 331.54 40.1387 331.011 39.6851 331.011C39.2694 331.011 39.156 331.578 39.156 332.409L38.8158 356.901C38.778 360.491 38.6269 361.701 37.5686 362.041C37.0017 362.192 36.2836 362.268 35.7922 362.268C35.3765 362.268 35.1497 362.343 35.1497 362.608C35.1497 362.986 35.5277 363.024 36.019 363.024C38.0977 363.024 39.9497 362.91 40.3277 362.91C41.0836 362.91 42.671 363.024 45.241 363.024C45.808 363.024 46.1481 362.948 46.1481 362.608C46.1481 362.381 45.9214 362.268 45.4678 362.268C44.8253 362.268 44.0694 362.23 43.3891 361.965C42.5954 361.663 42.0662 360.605 41.9906 357.354L41.5371 339.968H41.4615ZM77.3292 350.967C77.3292 354.973 77.3292 358.261 77.1403 360C77.0269 361.209 76.7623 361.89 75.9686 362.079C75.5906 362.154 75.1371 362.23 74.5324 362.23C74.041 362.23 73.8899 362.343 73.8899 362.57C73.8899 362.872 74.1544 362.986 74.6836 362.986C76.271 362.986 78.7654 362.872 79.7103 362.872C80.7686 362.872 83.3009 362.986 85.9088 362.986C86.3623 362.986 86.6647 362.872 86.6647 362.57C86.6647 362.381 86.4757 362.23 86.0221 362.23C85.4174 362.23 84.5481 362.154 83.9812 362.079C82.7717 361.927 82.5072 361.172 82.3938 360.038C82.2426 358.261 82.2426 355.011 82.2426 350.967V343.672C82.2426 337.398 82.2426 336.227 82.3182 334.904C82.3938 333.468 82.734 332.75 83.7922 332.561C84.2836 332.485 84.5859 332.447 85.0017 332.447C85.4174 332.447 85.6442 332.372 85.6442 332.031C85.6442 331.767 85.3418 331.691 84.8127 331.691C83.3009 331.691 80.9576 331.805 79.9749 331.805C78.8032 331.805 76.3088 331.691 74.7969 331.691C74.1544 331.691 73.8521 331.767 73.8521 332.031C73.8521 332.372 74.0788 332.447 74.4946 332.447C74.9859 332.447 75.4773 332.485 75.9308 332.598C76.8001 332.787 77.2158 333.505 77.2914 334.904C77.367 336.227 77.367 337.398 77.367 343.672V350.967H77.3292ZM101.669 361.02C102.425 362.986 102.652 363.553 103.181 363.553C103.748 363.553 103.975 362.872 104.995 360.491C105.865 358.413 107.754 353.915 110.287 347.868C112.441 342.765 113.499 340.535 115.049 336.642C116.107 333.997 116.712 333.279 117.241 332.901C117.959 332.409 118.791 332.409 119.206 332.409C119.622 332.409 119.849 332.334 119.849 332.031C119.849 331.729 119.547 331.653 119.017 331.653C117.808 331.653 115.956 331.767 115.276 331.767C114.747 331.767 113.084 331.653 111.08 331.653C110.325 331.653 109.984 331.729 109.984 332.069C109.984 332.372 110.287 332.409 110.665 332.409C111.194 332.409 111.761 332.447 112.252 332.598C112.592 332.712 112.781 333.052 112.781 333.392C112.781 333.77 112.63 334.375 112.403 334.942C111.458 337.663 106.28 351.005 104.58 355.54H104.428L97.5875 336.756C97.0206 335.282 96.6804 334.11 96.6804 333.581C96.6804 333.203 96.7938 332.901 97.0962 332.712C97.3985 332.447 98.0032 332.409 98.6458 332.409C98.9859 332.409 99.2505 332.334 99.2505 332.031C99.2505 331.729 98.7969 331.653 98.3434 331.653C96.3403 331.653 94.4505 331.767 93.4678 331.767C92.0694 331.767 89.8017 331.653 87.6851 331.653C87.0804 331.653 86.6647 331.691 86.6647 332.031C86.6647 332.296 86.778 332.409 87.156 332.409C87.4584 332.409 88.1009 332.409 88.7056 332.561C90.1418 332.976 90.8221 333.43 91.7292 335.698L101.745 360.983L101.669 361.02ZM124.12 350.967C124.12 354.784 124.12 358.035 123.931 359.773C123.78 360.983 123.553 361.89 122.759 362.041C122.419 362.116 121.928 362.192 121.323 362.192C120.832 362.192 120.68 362.305 120.68 362.532C120.68 362.835 120.945 362.948 121.474 362.948C122.268 362.948 123.288 362.872 124.233 362.872C125.178 362.835 126.047 362.835 126.501 362.835C127.71 362.835 128.92 362.872 130.621 362.948C132.321 362.986 134.513 363.061 137.499 363.061C139.011 363.061 139.389 363.061 139.654 361.965C139.843 361.134 140.183 358.337 140.183 357.392C140.183 356.976 140.183 356.636 139.88 356.636C139.616 356.636 139.502 356.787 139.427 357.241C139.162 358.942 138.671 359.811 137.65 360.302C136.63 360.794 134.929 360.794 133.909 360.794C129.865 360.794 129.222 360.189 129.147 357.316C129.109 356.107 129.147 352.327 129.147 350.891V347.603C129.147 347.376 129.184 347.187 129.373 347.187C130.318 347.187 134.249 347.225 135.043 347.301C136.517 347.452 137.084 348.094 137.273 348.926C137.386 349.455 137.386 350.022 137.424 350.4C137.424 350.589 137.499 350.778 137.802 350.778C138.18 350.778 138.18 350.324 138.18 349.984C138.18 349.682 138.293 348.057 138.331 347.225C138.482 345.109 138.633 344.466 138.633 344.202C138.633 343.975 138.52 343.861 138.369 343.861C138.18 343.861 137.991 344.05 137.726 344.39C137.348 344.806 136.781 344.92 135.799 344.995C134.891 345.071 130.318 345.071 129.449 345.071C129.222 345.071 129.184 344.92 129.184 344.617V334.148C129.184 333.846 129.26 333.732 129.449 333.732C130.243 333.732 134.438 333.808 135.118 333.883C137.121 334.148 137.499 334.639 137.802 335.357C137.991 335.849 138.028 336.567 138.028 336.831C138.028 337.209 138.104 337.398 138.406 337.398C138.671 337.398 138.784 337.134 138.822 336.945C138.898 336.453 138.973 334.639 139.011 334.224C139.125 332.334 139.313 331.842 139.313 331.54C139.313 331.351 139.276 331.162 139.087 331.162C138.898 331.162 138.633 331.276 138.444 331.313C138.142 331.389 137.499 331.464 136.743 331.578C135.987 331.616 128.05 331.616 126.803 331.616C126.236 331.616 125.329 331.578 124.309 331.54C123.326 331.54 122.154 331.502 121.096 331.502C120.491 331.502 120.227 331.578 120.227 331.88C120.227 332.183 120.454 332.258 120.907 332.258C121.474 332.258 122.154 332.296 122.457 332.372C123.78 332.674 124.082 333.316 124.158 334.715C124.233 336.038 124.233 337.209 124.233 343.483V350.778L124.12 350.967ZM149.254 350.967C149.254 354.784 149.254 358.035 149.065 359.773C148.913 360.983 148.725 361.89 147.893 362.041C147.515 362.116 147.062 362.192 146.457 362.192C145.965 362.192 145.814 362.305 145.814 362.532C145.814 362.835 146.079 362.948 146.608 362.948C148.195 362.948 150.69 362.835 151.446 362.835C152.05 362.835 154.999 362.948 157.304 362.948C157.833 362.948 158.098 362.835 158.098 362.532C158.098 362.343 157.947 362.192 157.606 362.192C157.115 362.192 156.246 362.116 155.641 362.041C154.432 361.89 154.205 360.983 154.091 359.773C153.902 358.035 153.902 354.784 153.902 350.929V350.362C153.902 350.098 154.016 350.022 154.205 350.022L157.682 350.098C157.947 350.098 158.211 350.135 158.4 350.4C158.929 351.005 160.743 353.839 162.331 356.107C164.561 359.282 166.073 361.247 167.773 362.192C168.794 362.759 169.814 362.986 172.044 362.986H175.824C176.315 362.986 176.58 362.91 176.58 362.57C176.58 362.381 176.428 362.23 176.088 362.23C175.786 362.23 175.408 362.192 174.954 362.116C174.35 362.003 172.725 361.701 170.495 359.32C168.151 356.75 165.392 353.083 161.877 348.435C165.884 345.033 167.131 342.236 167.131 339.175C167.131 336.416 165.543 334.299 164.41 333.505C162.255 331.994 159.61 331.729 157.077 331.729C155.83 331.729 152.806 331.842 151.484 331.842C150.652 331.842 148.158 331.729 146.041 331.729C145.436 331.729 145.172 331.805 145.172 332.107C145.172 332.409 145.399 332.485 145.852 332.485C146.419 332.485 147.099 332.523 147.402 332.598C148.725 332.901 149.027 333.543 149.102 334.942C149.178 336.264 149.178 337.436 149.178 343.71V351.005L149.254 350.967ZM153.94 334.375C153.94 334.035 154.016 333.883 154.318 333.808C154.734 333.694 155.414 333.657 156.435 333.657C158.778 333.657 162.52 335.357 162.52 341.216C162.52 344.617 161.348 346.507 160.176 347.414C159.458 347.943 158.929 348.132 157.342 348.132C156.359 348.132 155.15 348.019 154.318 347.716C154.054 347.603 153.94 347.414 153.94 346.961V334.375ZM182.325 363.553C184.441 363.553 186.671 363.175 188.636 361.852C191.509 359.924 192.378 357.052 192.378 354.671C192.378 350.74 190.677 347.868 185.839 344.126L184.743 343.257C181.455 340.649 180.51 339.213 180.51 337.285C180.51 334.79 182.287 333.014 185.235 333.014C187.805 333.014 188.976 334.261 189.581 335.055C190.413 336.151 190.602 337.436 190.602 337.776C190.602 338.268 190.715 338.532 191.017 338.532C191.32 338.532 191.471 338.192 191.471 337.285C191.471 334.072 191.622 332.863 191.622 332.334C191.622 332.031 191.433 331.918 191.055 331.842C190.035 331.54 188.334 331.124 185.764 331.124C180.246 331.124 176.58 334.413 176.58 338.948C176.58 342.312 178.091 345.184 182.476 348.737L184.29 350.211C187.578 352.894 188.183 354.784 188.183 356.825C188.183 359.017 186.444 361.55 182.854 361.55C180.397 361.55 178.054 360.416 177.147 357.354C176.958 356.636 176.769 355.767 176.769 355.238C176.769 354.898 176.731 354.52 176.353 354.52C176.05 354.52 175.899 354.973 175.862 355.578C175.824 356.258 175.673 358.715 175.673 360.983C175.673 361.89 175.786 362.079 176.428 362.381C178.129 363.175 179.943 363.477 182.249 363.477L182.325 363.553ZM201.865 350.967C201.865 354.973 201.865 358.261 201.676 360C201.562 361.209 201.298 361.89 200.504 362.079C200.126 362.154 199.673 362.23 199.068 362.23C198.576 362.23 198.425 362.343 198.425 362.57C198.425 362.872 198.69 362.986 199.219 362.986C200.806 362.986 203.301 362.872 204.246 362.872C205.304 362.872 207.836 362.986 210.444 362.986C210.898 362.986 211.2 362.872 211.2 362.57C211.2 362.381 211.011 362.23 210.558 362.23C209.953 362.23 209.084 362.154 208.517 362.079C207.307 361.927 207.043 361.172 206.929 360.038C206.778 358.261 206.778 355.011 206.778 350.967V343.672C206.778 337.398 206.778 336.227 206.854 334.904C206.929 333.468 207.269 332.75 208.328 332.561C208.819 332.485 209.121 332.447 209.537 332.447C209.953 332.447 210.18 332.372 210.18 332.031C210.18 331.767 209.877 331.691 209.348 331.691C207.836 331.691 205.493 331.805 204.51 331.805C203.339 331.805 200.844 331.691 199.332 331.691C198.69 331.691 198.387 331.767 198.387 332.031C198.387 332.372 198.614 332.447 199.03 332.447C199.521 332.447 200.013 332.485 200.466 332.598C201.336 332.787 201.751 333.505 201.827 334.904C201.902 336.227 201.902 337.398 201.902 343.672V350.967H201.865ZM225.147 350.967C225.147 354.784 225.147 358.035 224.958 359.773C224.844 360.983 224.617 361.89 223.786 362.041C223.408 362.116 222.954 362.192 222.35 362.192C221.858 362.192 221.707 362.305 221.707 362.532C221.707 362.835 221.972 362.948 222.501 362.948C224.088 362.948 226.583 362.835 227.528 362.835C228.624 362.835 231.156 362.948 233.764 362.948C234.217 362.948 234.52 362.835 234.52 362.532C234.52 362.343 234.331 362.192 233.877 362.192C233.273 362.192 232.403 362.116 231.836 362.041C230.627 361.89 230.4 360.983 230.287 359.811C230.098 358.035 230.098 354.746 230.098 350.967V333.997L235.125 334.11C238.677 334.186 239.736 335.357 239.811 336.416L239.849 336.869C239.887 337.474 239.962 337.701 240.265 337.701C240.491 337.701 240.567 337.436 240.643 337.02C240.643 335.962 240.756 333.09 240.756 332.22C240.756 331.616 240.718 331.351 240.454 331.351C240.302 331.351 239.962 331.427 239.395 331.54C238.791 331.616 237.921 331.729 236.636 331.729H220.876C219.553 331.729 218.041 331.653 216.907 331.54C215.925 331.464 215.509 331.049 215.206 331.049C214.98 331.049 214.828 331.313 214.715 331.842C214.639 332.183 213.884 335.924 213.884 336.605C213.884 337.058 213.959 337.285 214.262 337.285C214.488 337.285 214.639 337.134 214.715 336.794C214.791 336.453 214.98 335.962 215.395 335.357C216 334.45 216.945 334.224 219.25 334.148L225.184 333.997V350.967H225.147ZM256.176 352.176C256.365 352.176 256.479 352.252 256.554 352.479L259.729 361.247C259.918 361.739 259.654 362.116 259.389 362.192C258.973 362.23 258.822 362.305 258.822 362.57C258.822 362.872 259.313 362.872 260.032 362.91C263.206 362.986 266.117 362.986 267.553 362.986C269.027 362.986 269.367 362.91 269.367 362.57C269.367 362.268 269.178 362.23 268.838 362.23C268.347 362.23 267.78 362.192 267.175 362.079C266.343 361.814 265.172 361.247 263.66 357.543C261.128 351.269 254.74 334.413 253.795 332.107C253.38 331.162 253.153 330.784 252.813 330.784C252.397 330.784 252.17 331.238 251.717 332.447L241.739 358.413C240.945 360.491 240.189 361.89 238.337 362.154C238.035 362.192 237.468 362.23 237.09 362.23C236.787 362.23 236.599 362.305 236.599 362.57C236.599 362.91 236.825 362.986 237.354 362.986C239.433 362.986 241.625 362.872 242.041 362.872C243.288 362.872 244.989 362.986 246.274 362.986C246.728 362.986 246.954 362.91 246.954 362.57C246.954 362.343 246.841 362.23 246.35 362.23H245.745C244.498 362.23 244.158 361.701 244.158 360.945C244.158 360.453 244.347 359.471 244.762 358.413L246.917 352.516C246.992 352.252 247.068 352.176 247.295 352.176H256.176ZM248.088 350.098C247.937 350.098 247.899 349.984 247.937 349.795L251.603 339.628C251.641 339.477 251.717 339.25 251.83 339.25C251.943 339.25 251.981 339.439 252.019 339.628L255.61 349.833C255.647 349.946 255.61 350.098 255.421 350.098H248.088ZM276.775 363.553C278.891 363.553 281.121 363.175 283.087 361.852C285.959 359.924 286.828 357.052 286.828 354.671C286.828 350.74 285.128 347.868 280.29 344.126L279.194 343.257C275.906 340.649 274.961 339.213 274.961 337.285C274.961 334.79 276.737 333.014 279.685 333.014C282.255 333.014 283.427 334.261 284.032 335.055C284.863 336.151 285.052 337.436 285.052 337.776C285.052 338.268 285.165 338.532 285.468 338.532C285.77 338.532 285.921 338.192 285.921 337.285C285.921 334.072 286.073 332.863 286.073 332.334C286.073 332.031 285.884 331.918 285.506 331.842C284.485 331.54 282.784 331.124 280.214 331.124C274.696 331.124 271.03 334.413 271.03 338.948C271.03 342.312 272.542 345.184 276.926 348.737L278.74 350.211C282.028 352.894 282.633 354.784 282.633 356.825C282.633 359.017 280.895 361.55 277.304 361.55C274.847 361.55 272.504 360.416 271.597 357.354C271.408 356.636 271.219 355.767 271.219 355.238C271.219 354.898 271.181 354.52 270.803 354.52C270.501 354.52 270.387 354.973 270.312 355.578C270.274 356.258 270.123 358.715 270.123 360.983C270.123 361.89 270.236 362.079 270.879 362.381C272.58 363.175 274.394 363.477 276.699 363.477L276.775 363.553ZM20.4473 397.153C20.4473 401.159 20.4473 404.447 20.2584 406.186C20.145 407.395 19.8804 408.076 19.0867 408.264C18.7088 408.34 18.2552 408.416 17.6505 408.416C17.1591 408.416 17.008 408.529 17.008 408.756C17.008 409.058 17.2725 409.172 17.8017 409.172C19.3891 409.172 21.8836 409.058 22.8284 409.058C23.8867 409.058 26.419 409.172 29.0269 409.172C29.4804 409.172 29.7828 409.058 29.7828 408.756C29.7828 408.529 29.5938 408.416 29.1403 408.416C28.5355 408.416 27.6662 408.34 27.0993 408.264C25.8899 408.113 25.6253 407.357 25.5119 406.224C25.3607 404.447 25.3607 401.159 25.3607 397.153V389.858C25.3607 383.584 25.3607 382.413 25.4363 381.09C25.5119 379.653 25.8521 378.935 26.9103 378.746C27.4017 378.671 27.704 378.633 28.1198 378.633C28.5355 378.633 28.7623 378.557 28.7623 378.217C28.7623 377.99 28.4599 377.877 27.9308 377.877C26.419 377.877 24.0757 377.99 23.093 377.99C21.9214 377.99 19.4269 377.877 17.9151 377.877C17.2725 377.877 16.9702 377.953 16.9702 378.217C16.9702 378.557 17.1969 378.633 17.6127 378.633C18.104 378.633 18.5954 378.671 19.0489 378.784C19.9182 378.973 20.334 379.691 20.4095 381.09C20.4851 382.413 20.4851 383.584 20.4851 389.858V397.153H20.4473ZM40.2143 386.154H40.3277C41.0458 386.948 45.4678 392.126 49.8143 396.586C53.934 400.857 59.0363 406.261 61.5308 408.756C61.9843 409.209 62.4379 409.663 62.8914 409.663C63.2694 409.663 63.4206 409.285 63.4206 408.378L63.8741 382.261C63.9119 379.956 64.2143 379.087 65.3481 378.746C65.8395 378.633 66.1418 378.633 66.5576 378.633C67.0489 378.633 67.2757 378.52 67.2757 378.255C67.2757 377.915 66.8599 377.877 66.3686 377.877C64.441 377.877 62.8914 377.99 62.4757 377.99C61.6442 377.99 59.7166 377.877 57.6757 377.877C57.071 377.877 56.6552 377.915 56.6552 378.255C56.6552 378.52 56.8064 378.633 57.2977 378.633C57.8647 378.633 58.8095 378.633 59.4143 378.898C60.3591 379.313 60.7371 380.107 60.7749 382.639L61.1528 401.197H60.9639C60.2836 400.516 54.9166 394.583 52.1954 391.748C46.3749 385.739 40.3277 379.011 39.8741 378.482C39.1938 377.726 38.8536 377.197 38.4001 377.197C37.9843 377.197 37.871 377.764 37.871 378.595L37.5308 403.087C37.493 406.677 37.3418 407.887 36.2836 408.227C35.7166 408.378 34.9985 408.416 34.5072 408.416C34.0914 408.416 33.8647 408.491 33.8647 408.756C33.8647 409.134 34.2426 409.172 34.734 409.172C36.8127 409.172 38.6647 409.058 39.0426 409.058C39.7985 409.058 41.3859 409.172 43.9938 409.172C44.5607 409.172 44.9009 409.096 44.9009 408.756C44.9009 408.491 44.6741 408.416 44.2206 408.416C43.578 408.416 42.8221 408.378 42.1418 408.113C41.3481 407.811 40.819 406.753 40.7434 403.54L40.2899 386.154H40.2143ZM76.082 397.153C76.082 400.97 76.082 404.22 75.893 405.959C75.7418 407.168 75.5528 408.076 74.7214 408.227C74.3434 408.302 73.8899 408.378 73.2851 408.378C72.7938 408.378 72.6426 408.491 72.6426 408.718C72.6426 409.02 72.9072 409.134 73.4363 409.134C74.23 409.134 75.2505 409.058 76.1954 409.058C77.1403 409.02 78.0095 409.02 78.4631 409.02C79.4458 409.02 80.8442 409.134 82.356 409.285C83.8678 409.398 85.493 409.55 86.9292 409.55C94.2993 409.55 98.419 406.602 100.271 404.674C102.501 402.331 104.617 398.362 104.617 393.146C104.617 388.233 102.728 384.794 100.762 382.639C96.4158 377.915 89.7639 377.915 84.8127 377.915C82.4316 377.915 79.9371 378.028 78.6899 378.028C77.5938 378.028 75.0615 377.915 72.945 377.915C72.3403 377.915 72.0757 377.99 72.0757 378.293C72.0757 378.595 72.3025 378.671 72.756 378.671C73.3229 378.671 74.0032 378.709 74.3056 378.784C75.6284 379.087 75.9308 379.729 76.0064 381.127C76.082 382.45 76.082 383.622 76.082 389.896V397.19V397.153ZM81.071 389.216C81.071 385.965 81.071 382.337 81.1088 380.939C81.1088 380.485 81.2221 380.258 81.6001 380.107C81.9025 379.956 83.3765 379.805 84.1702 379.805C87.2694 379.805 91.8048 380.296 95.471 383.924C97.1717 385.625 99.2883 389.027 99.2883 394.28C99.2883 398.551 98.4946 402.293 95.9623 404.598C93.5812 406.753 90.8599 407.584 86.8158 407.584C83.6788 407.584 82.1292 406.715 81.6001 405.921C81.2977 405.468 81.1843 403.805 81.1465 402.784C81.1088 401.99 81.071 398.816 81.071 394.431V389.216ZM125.027 409.739C135.118 409.739 141.506 402.255 141.506 392.768C141.506 383.282 135.345 377.31 125.443 377.31C113.499 377.31 109.002 386.457 109.002 393.524C109.002 400.857 113.613 409.739 125.027 409.739ZM126.69 407.66C119.055 407.66 114.482 400.819 114.482 392.239C114.482 381.921 119.698 379.276 124.271 379.276C130.81 379.276 135.95 385.02 135.95 394.28C135.95 406.224 129.487 407.66 126.728 407.66H126.69ZM151.597 386.154H151.71C152.428 386.948 156.85 392.126 161.197 396.586C165.317 400.857 170.419 406.261 172.913 408.756C173.367 409.209 173.821 409.663 174.274 409.663C174.652 409.663 174.803 409.285 174.803 408.378L175.257 382.261C175.295 379.956 175.635 379.087 176.731 378.746C177.222 378.633 177.525 378.633 177.94 378.633C178.432 378.633 178.658 378.52 178.658 378.255C178.658 377.915 178.28 377.877 177.751 377.877C175.786 377.877 174.274 377.99 173.858 377.99C173.027 377.99 171.099 377.877 169.058 377.877C168.454 377.877 168.038 377.915 168.038 378.255C168.038 378.52 168.189 378.633 168.68 378.633C169.247 378.633 170.192 378.633 170.797 378.898C171.742 379.313 172.12 380.107 172.158 382.639L172.573 401.197H172.384C171.704 400.516 166.337 394.583 163.616 391.748C157.795 385.739 151.748 379.011 151.295 378.482C150.614 377.726 150.274 377.197 149.821 377.197C149.443 377.197 149.291 377.764 149.291 378.595L148.951 403.087C148.913 406.677 148.762 407.887 147.704 408.227C147.137 408.378 146.419 408.416 145.928 408.416C145.512 408.416 145.285 408.491 145.285 408.756C145.285 409.134 145.663 409.172 146.154 409.172C148.233 409.172 150.085 409.058 150.463 409.058C151.219 409.058 152.806 409.172 155.376 409.172C155.943 409.172 156.284 409.096 156.284 408.756C156.284 408.491 156.057 408.416 155.603 408.416C154.961 408.416 154.205 408.378 153.525 408.113C152.731 407.811 152.202 406.753 152.126 403.54L151.673 386.154H151.597ZM187.465 397.153C187.465 400.97 187.465 404.22 187.276 405.959C187.125 407.168 186.898 408.076 186.104 408.227C185.726 408.302 185.273 408.378 184.668 408.378C184.176 408.378 184.025 408.491 184.025 408.718C184.025 409.02 184.29 409.134 184.819 409.134C185.613 409.134 186.633 409.058 187.578 409.058C188.523 409.02 189.392 409.02 189.846 409.02C191.055 409.02 192.265 409.058 193.965 409.134C195.666 409.172 197.858 409.247 200.844 409.247C202.356 409.247 202.696 409.247 202.999 408.151C203.187 407.32 203.528 404.523 203.528 403.54C203.528 403.124 203.528 402.784 203.225 402.784C202.961 402.784 202.847 402.935 202.772 403.389C202.507 405.09 202.016 405.959 200.995 406.45C199.975 406.942 198.274 406.942 197.254 406.942C193.21 406.942 192.567 406.337 192.491 403.464C192.454 402.255 192.491 398.476 192.491 397.039V393.789C192.491 393.524 192.529 393.373 192.718 393.373C193.663 393.373 197.594 393.411 198.387 393.487C199.862 393.638 200.428 394.28 200.617 395.112C200.731 395.641 200.731 396.17 200.769 396.586C200.769 396.813 200.844 396.964 201.147 396.964C201.525 396.964 201.525 396.51 201.525 396.17C201.525 395.868 201.638 394.242 201.676 393.411C201.827 391.294 201.978 390.652 201.978 390.387C201.978 390.123 201.865 390.047 201.713 390.047C201.525 390.047 201.336 390.274 201.071 390.576C200.693 390.992 200.126 391.105 199.143 391.181C198.236 391.257 193.663 391.257 192.794 391.257C192.567 391.257 192.529 391.105 192.529 390.803V380.334C192.529 380.031 192.605 379.918 192.794 379.918C193.587 379.918 197.783 379.994 198.463 380.069C200.466 380.334 200.844 380.825 201.147 381.543C201.336 382.035 201.373 382.753 201.373 383.017C201.373 383.395 201.449 383.584 201.751 383.584C202.016 383.584 202.129 383.32 202.167 383.131C202.243 382.639 202.318 380.825 202.356 380.409C202.469 378.52 202.658 378.028 202.658 377.726C202.658 377.537 202.621 377.348 202.432 377.348C202.243 377.348 202.016 377.461 201.789 377.499C201.487 377.575 200.844 377.65 200.088 377.764C199.332 377.802 191.395 377.802 190.148 377.802C189.581 377.802 188.674 377.764 187.654 377.726C186.671 377.726 185.499 377.688 184.441 377.688C183.836 377.688 183.572 377.764 183.572 378.066C183.572 378.368 183.799 378.444 184.252 378.444C184.819 378.444 185.499 378.482 185.802 378.557C187.125 378.86 187.427 379.502 187.502 380.901C187.578 382.224 187.578 383.395 187.578 389.669V396.964L187.465 397.153Z" fill="white"/>
<path d="M0 489.26H286.828V491.376H0V489.26Z" fill="white"/>
<path d="M188.107 470.891C188.145 472.327 187.389 473.31 185.801 473.839C185.612 474.331 185.424 474.709 185.235 474.898C184.97 475.2 184.554 475.351 184.063 475.389C183.723 475.427 183.383 475.389 183.005 475.351C182.324 475.238 181.493 475.124 180.51 474.935C180.246 474.898 180.057 474.709 180.019 474.406C180.057 474.066 180.397 473.877 181.001 473.839C181.833 473.801 183.042 473.65 184.63 473.386C185.235 473.235 185.65 472.894 185.915 472.327C186.066 472.025 186.142 471.685 186.142 471.269C186.142 470.513 185.764 469.19 185.046 467.301C184.327 465.449 183.987 464.201 184.025 463.597C184.101 462.123 185.461 461.064 187.994 460.46C188.258 460.384 188.372 460.498 188.372 460.762C188.372 460.913 188.258 461.027 188.107 461.102C186.86 461.669 186.255 462.35 186.255 463.181C186.255 463.521 186.293 463.899 186.406 464.39C186.52 464.882 186.86 466.053 187.427 467.868C187.842 469.19 188.069 470.211 188.069 470.891H188.107Z" fill="white"/>
<path d="M190.866 460.573C190.866 461.102 190.715 461.972 190.45 463.181C190.337 463.597 190.224 463.861 190.11 463.975C190.072 464.05 189.846 464.126 189.506 464.239C189.09 464.391 188.825 464.504 188.712 464.504C188.561 464.504 188.447 464.391 188.447 464.126C188.447 464.013 188.447 463.824 188.523 463.597C188.787 462.425 188.901 461.594 188.825 461.14C188.75 460.687 188.901 460.384 189.203 460.271C189.77 459.969 190.148 459.817 190.299 459.817C190.639 459.817 190.828 460.082 190.828 460.573H190.866Z" fill="white"/>
<path d="M180.964 462.992C179.905 466.054 179.187 468.624 178.772 470.665C178.961 470.513 179.187 470.249 179.452 469.909C179.716 469.568 179.905 469.342 179.981 469.304C180.132 469.077 180.321 468.964 180.51 468.964C180.661 468.964 180.775 469.039 180.775 469.228C180.775 469.342 180.737 469.455 180.624 469.606C179.527 471.269 178.809 472.932 178.469 474.633C178.356 475.124 178.205 475.351 178.016 475.351C177.827 475.351 177.449 475.162 176.92 474.784C176.617 474.557 176.428 474.368 176.39 474.255C176.353 474.104 176.353 473.839 176.39 473.461C176.882 470.438 177.487 467.905 178.205 465.865C177.222 467.565 175.861 469.417 174.123 471.458C172.611 473.235 171.515 474.368 170.872 474.86C170.381 475.2 170.041 475.389 169.776 475.389C169.587 475.389 169.247 475.2 168.831 474.86C168.227 474.482 167.924 473.953 167.924 473.272C167.924 473.159 167.924 473.008 167.962 472.819C168.151 471.042 168.907 469.002 170.192 466.62C171.477 464.277 172.951 462.274 174.614 460.687C175.143 460.157 175.635 459.893 176.05 459.931C176.466 459.968 177.26 460.498 178.431 461.631C178.545 461.745 178.583 461.82 178.583 461.934C178.583 462.123 178.469 462.236 178.205 462.236C178.129 462.236 178.016 462.236 177.94 462.198C177.109 461.82 176.466 461.858 175.975 462.236C174.879 463.068 173.707 464.504 172.384 466.583C170.872 468.964 169.965 471.118 169.625 473.046C169.625 473.121 169.587 473.197 169.587 473.272C169.587 473.575 169.701 473.726 169.927 473.726C170.305 473.726 170.797 473.461 171.326 472.894C172.611 471.609 174.009 469.946 175.483 467.981C176.995 465.94 177.978 464.391 178.394 463.332C178.696 462.576 178.885 462.009 178.998 461.707C179.15 461.178 179.301 460.913 179.49 460.913C179.641 460.913 180.057 461.178 180.699 461.631C180.964 461.82 181.115 462.009 181.115 462.198C181.153 462.35 181.077 462.576 180.964 462.954V462.992Z" fill="white"/>
<path d="M170.419 452.031C170.759 452.22 170.91 452.409 170.91 452.636C170.91 452.787 170.797 452.863 170.57 452.863C170.532 452.863 170.457 452.863 170.343 452.825C170.23 452.787 170.192 452.787 170.116 452.787C169.663 452.787 169.134 453.279 168.529 454.261C167.962 455.131 167.206 457.058 166.224 460.044C166.148 460.309 166.11 460.46 166.11 460.498C166.148 460.573 166.299 460.649 166.564 460.649C167.244 460.687 168.151 460.687 169.285 460.573C169.663 460.535 169.852 460.724 169.852 461.102C169.852 461.367 169.701 461.518 169.398 461.594C169.172 461.631 167.887 461.745 165.581 461.934C164.183 466.129 163.351 469.682 163.049 472.592C163.049 472.743 163.049 472.894 163.049 473.008C163.049 473.424 163.162 473.613 163.351 473.613C163.653 473.613 164.598 472.819 166.186 471.269C166.375 471.08 166.564 470.967 166.715 470.967C166.866 470.967 166.942 471.043 166.979 471.156C167.017 471.307 166.979 471.458 166.828 471.647C165.883 472.932 164.976 474.028 164.069 474.935C163.691 475.313 163.389 475.502 163.124 475.502C162.86 475.502 162.482 475.313 161.953 474.86C161.272 474.671 160.97 474.331 160.97 473.764C160.97 473.688 160.97 473.575 161.008 473.461C161.424 470.4 162.255 466.583 163.502 462.047C162.898 461.972 162.331 461.896 161.839 461.783C161.612 461.745 161.499 461.594 161.499 461.367C161.499 461.102 161.612 460.913 161.839 460.876C162.066 460.838 162.482 460.687 163.124 460.46C163.502 460.346 163.88 460.157 164.22 459.931C165.43 455.962 166.412 453.392 167.131 452.22C167.546 451.54 167.962 451.238 168.416 451.238C168.869 451.238 169.512 451.465 170.343 451.956L170.419 452.031Z" fill="white"/>
<path d="M158.816 462.765C158.551 464.391 157.833 467.074 156.661 470.816C157.001 470.513 157.455 469.946 158.06 469.115C158.135 469.002 158.211 468.964 158.287 468.964C158.476 468.964 158.513 469.115 158.362 469.455C158.324 469.569 157.833 470.4 156.926 471.912C156.246 473.046 155.716 474.066 155.414 474.973C155.301 475.238 155.112 475.389 154.847 475.389C154.583 475.389 154.205 475.238 153.713 474.973C153.411 474.822 153.26 474.671 153.26 474.595C153.26 474.52 153.335 474.369 153.449 474.142C154.091 473.008 154.772 471.118 155.527 468.435C156.246 465.865 156.661 463.937 156.737 462.652C156.775 462.123 156.699 461.858 156.586 461.858C156.472 461.858 156.321 462.009 156.019 462.274L154.961 463.294C154.583 463.672 154.394 463.672 154.394 463.37C154.394 463.257 154.431 463.143 154.545 462.992C155.074 462.198 155.679 461.443 156.283 460.762C156.472 460.573 156.661 460.46 156.813 460.46C157.001 460.46 157.266 460.573 157.606 460.838C158.135 460.989 158.438 461.065 158.476 461.102C158.74 461.254 158.853 461.594 158.853 462.047C158.853 462.274 158.816 462.501 158.778 462.803L158.816 462.765Z" fill="white"/>
<path d="M161.235 454.904C161.424 455.055 161.499 455.206 161.499 455.395C161.499 455.735 161.008 456.264 160.025 457.02C159.383 457.512 158.74 457.663 158.135 457.512C157.795 457.436 157.493 457.323 157.228 457.134C157.153 457.058 157.077 456.983 157.039 456.907C157.001 456.831 157.001 456.756 157.001 456.718C157.039 456.68 157.115 456.642 157.228 456.68C158.287 455.698 158.967 455.017 159.307 454.601C159.572 454.299 159.761 454.148 159.874 454.148C160.101 454.148 160.516 454.413 161.235 454.904Z" fill="white"/>
<path d="M152.92 447.08C153.071 447.194 153.146 447.307 153.146 447.458C153.146 447.685 152.995 447.836 152.731 447.836C152.617 447.836 152.504 447.798 152.391 447.723C151.861 447.42 151.446 447.269 151.181 447.269C150.463 447.269 149.669 448.025 148.8 449.461C145.701 454.677 143.433 461.556 142.035 470.06C143.244 467.943 144.113 466.469 144.718 465.6C145.928 463.786 147.175 462.312 148.46 461.102C149.065 460.535 149.631 460.233 150.123 460.233C150.387 460.233 150.765 460.384 151.294 460.724C152.315 461.216 152.768 461.972 152.693 462.992C152.504 465.298 151.937 467.603 151.03 469.833C150.123 472.025 149.065 473.764 147.817 475.011C147.477 475.351 147.137 475.54 146.759 475.54C146.003 475.54 144.983 474.671 143.66 472.894C143.509 472.705 143.433 472.517 143.433 472.365C143.433 472.176 143.546 472.101 143.735 472.101C143.924 472.101 144.113 472.176 144.302 472.365C144.983 472.97 145.55 473.272 146.041 473.272C146.494 473.272 146.948 472.97 147.402 472.403C148.195 471.345 148.913 469.909 149.556 468.094C150.312 466.054 150.652 464.239 150.652 462.614C150.652 462.009 150.463 461.669 150.047 461.669C149.82 461.669 149.556 461.82 149.291 462.047C147.855 463.332 146.419 465.109 144.983 467.452C143.433 469.946 142.337 472.365 141.619 474.709C141.505 475.162 141.317 475.389 141.128 475.389C141.014 475.389 140.901 475.351 140.75 475.238C140.183 474.822 139.843 474.595 139.767 474.52C139.54 474.293 139.427 473.953 139.427 473.575C139.427 473.386 139.465 473.159 139.502 472.894C140.863 465.26 142.564 458.797 144.68 453.43C146.268 449.386 147.704 446.778 148.951 445.568C149.291 445.266 149.594 445.077 149.934 445.077C150.274 445.077 150.652 445.266 151.143 445.682C151.71 446.173 152.315 446.665 152.882 447.156L152.92 447.08Z" fill="white"/>
<path d="M137.877 463.597C137.839 464.655 137.613 466.091 137.121 467.83C136.365 470.589 135.307 472.743 133.946 474.293C133.228 475.087 132.397 475.502 131.528 475.502C131.187 475.502 130.734 475.427 130.205 475.276C129.109 475.2 128.239 474.86 127.559 474.217C126.841 473.537 126.463 472.63 126.539 471.534C126.576 470.249 126.992 468.51 127.786 466.205C128.655 463.71 129.562 461.934 130.507 460.838C130.961 460.309 131.339 460.044 131.603 460.044C131.981 460.044 132.624 460.46 133.493 461.291C133.72 461.178 134.249 460.951 134.967 460.611C135.345 460.46 135.647 460.422 135.836 460.422C136.29 460.422 136.781 460.838 137.348 461.745C137.688 462.274 137.877 462.879 137.839 463.521L137.877 463.597ZM135.874 464.126C135.95 463.332 135.987 462.841 135.987 462.614C135.987 462.123 135.836 461.858 135.534 461.858C135.42 461.858 135.269 461.896 135.08 461.934L132.397 463.068C132.094 463.181 131.905 463.257 131.868 463.257C131.792 463.257 131.679 463.143 131.603 462.917C130.923 463.786 130.318 464.995 129.751 466.583C129.298 467.83 128.995 468.964 128.806 469.946C128.693 470.627 128.617 471.231 128.617 471.761C128.617 473.613 129.146 474.52 130.243 474.444C130.696 474.444 131.15 474.255 131.641 473.915C132.624 473.235 133.493 471.874 134.362 469.833C135.156 467.905 135.647 465.978 135.836 464.088L135.874 464.126Z" fill="white"/>
<path d="M126.614 461.442C126.614 463.03 126.425 464.504 126.009 465.94C125.896 466.356 125.707 466.583 125.48 466.583C125.329 466.583 124.951 466.356 124.422 465.865C124.157 465.638 124.082 465.298 124.195 464.844C124.535 463.748 124.687 462.879 124.687 462.236C124.687 462.009 124.649 461.896 124.535 461.896C124.384 461.896 124.157 462.123 123.855 462.539C121.436 465.789 119.66 469.417 118.488 473.461C118.11 474.746 117.77 475.389 117.506 475.389C117.392 475.389 116.939 475.162 116.145 474.746C115.767 474.557 115.616 474.142 115.767 473.575C116.674 469.455 117.657 465.94 118.715 463.105C117.846 464.05 117.317 464.693 117.09 465.033C117.014 465.184 116.863 465.26 116.712 465.26C116.523 465.26 116.409 465.184 116.409 464.995C116.409 464.882 116.447 464.768 116.561 464.655C117.128 463.937 117.883 462.879 118.828 461.405C119.131 460.876 119.395 460.611 119.698 460.611C119.887 460.611 120.302 460.762 120.945 461.102C121.285 461.291 121.361 461.556 121.096 461.858C120.831 462.198 120.378 463.446 119.66 465.524C118.98 467.565 118.526 469.191 118.261 470.324C119.849 466.696 121.625 463.483 123.591 460.724C123.968 460.195 124.271 459.931 124.498 459.931C124.687 459.931 124.989 460.082 125.329 460.346C125.82 460.422 126.123 460.498 126.236 460.573C126.425 460.724 126.539 461.027 126.539 461.442H126.614Z" fill="white"/>
<path d="M116.939 456.567C116.636 457.852 115.843 459.515 114.595 461.518C113.348 463.521 112.252 464.882 111.307 465.562C110.665 466.054 110.022 466.28 109.38 466.28C109.002 466.28 108.132 465.978 106.734 465.411C106.469 465.298 106.318 465.146 106.318 464.995C106.318 464.769 106.621 464.617 107.263 464.617C108.321 464.617 109.115 464.391 109.644 463.937C110.74 463.068 111.799 461.858 112.781 460.346C114.066 458.419 114.784 456.529 115.049 454.677C115.2 453.657 114.86 453.052 114.028 452.863C113.651 452.787 113.273 452.787 112.895 452.863C111.118 452.939 109.38 453.354 107.717 454.072C105.789 461.291 104.013 467.074 102.425 471.383C102.501 471.345 102.879 471.156 103.446 470.778C103.786 470.589 104.051 470.476 104.239 470.513C104.58 470.589 104.92 470.929 105.222 471.572C105.487 472.101 105.6 472.479 105.6 472.706C105.6 473.046 105.411 473.159 104.995 473.121C104.693 473.083 104.239 473.272 103.559 473.613C102.841 474.028 102.199 474.482 101.707 475.011C101.443 475.276 101.178 475.389 100.914 475.389C100.536 475.389 100.082 475.124 99.5151 474.595C99.1749 474.255 99.0237 473.953 99.0615 473.688C99.0993 473.499 99.2883 473.348 99.6285 473.235C102.425 466.507 104.542 460.346 105.902 454.791C101.556 456.794 99.4017 458.683 99.4017 460.46C99.4017 460.724 99.4395 460.951 99.5151 461.216C99.5529 461.291 99.6663 461.632 99.8552 462.123C99.893 462.236 99.9308 462.35 99.9308 462.463C99.9308 462.803 99.8174 462.954 99.5529 462.954C99.2127 462.954 98.4946 461.896 97.5119 459.817C97.3607 459.515 97.2852 459.25 97.2852 458.948C97.2852 458.23 97.7009 457.474 98.5702 456.643C99.1371 456.076 100.271 455.32 101.896 454.337C103.635 453.317 105.184 452.523 106.583 452.032C106.734 451.427 106.772 450.973 106.772 450.595C106.772 450.104 106.885 449.877 107.112 449.877C107.414 449.877 107.981 450.331 108.737 451.2C110.627 450.633 111.912 450.331 112.592 450.369C113.877 450.406 114.784 451.087 115.314 452.485C115.994 453.014 116.447 453.43 116.712 453.732C117.014 454.11 117.165 454.564 117.165 455.055C117.165 455.433 117.09 455.924 116.939 456.567Z" fill="white"/>
<path d="M85.7198 470.854C85.7953 471.005 85.682 471.42 85.3418 472.063C84.3969 473.953 83.6032 475.88 82.9985 477.808C83.2253 477.921 83.1497 478.148 82.6961 478.413C82.2804 478.715 81.8646 478.828 81.4489 478.753C81.2599 478.715 81.1843 478.564 81.1843 478.299C81.1843 477.959 81.3733 477.09 81.7135 475.767C82.2426 473.839 82.7339 472.554 83.1875 471.912C83.4142 471.647 83.641 471.458 83.9812 471.307C85.0394 470.929 85.6064 470.778 85.6442 470.891L85.7198 470.854Z" fill="white"/>
<path d="M79.0299 470.891C79.0677 472.327 78.3118 473.31 76.7244 473.839C76.5354 474.331 76.3464 474.709 76.1952 474.898C75.9307 475.2 75.5149 475.351 75.0236 475.389C74.6834 475.427 74.3433 475.389 73.9653 475.351C73.285 475.238 72.4535 475.124 71.4708 474.935C71.2063 474.898 71.0173 474.709 70.9795 474.406C71.0173 474.066 71.3574 473.877 71.9622 473.839C72.7937 473.801 74.0031 473.65 75.5905 473.386C76.1952 473.235 76.611 472.894 76.8756 472.327C77.0267 472.025 77.1023 471.685 77.1023 471.269C77.1023 470.513 76.7244 469.19 76.0063 467.301C75.2882 465.449 74.948 464.201 75.0236 463.597C75.0992 462.123 76.4598 461.064 78.9921 460.46C79.2567 460.384 79.37 460.498 79.37 460.762C79.37 460.913 79.2945 461.027 79.1055 461.102C77.8582 461.669 77.2535 462.35 77.2535 463.181C77.2535 463.521 77.2913 463.899 77.4425 464.39C77.5559 464.882 77.896 466.053 78.463 467.868C78.8787 469.19 79.1055 470.211 79.1055 470.891H79.0299Z" fill="white"/>
<path d="M81.789 460.573C81.789 461.102 81.6378 461.972 81.3733 463.181C81.2599 463.597 81.1465 463.861 81.0331 463.975C80.9575 464.05 80.7685 464.126 80.4284 464.239C80.0126 464.391 79.7481 464.504 79.6347 464.504C79.4835 464.504 79.3701 464.391 79.3701 464.126C79.3701 464.013 79.3701 463.824 79.4457 463.597C79.7103 462.425 79.8237 461.594 79.7481 461.14C79.6725 460.687 79.8237 460.384 80.126 460.271C80.693 459.969 81.0709 459.817 81.2221 459.817C81.5622 459.817 81.7512 460.082 81.7512 460.573H81.789Z" fill="white"/>
<path d="M71.8489 462.992C70.7907 466.054 70.0348 468.624 69.6568 470.665C69.808 470.513 70.0726 470.249 70.3371 469.909C70.6395 469.568 70.7907 469.342 70.8663 469.304C71.0174 469.077 71.2064 468.964 71.3954 468.964C71.5466 468.964 71.66 469.039 71.66 469.228C71.66 469.342 71.6222 469.455 71.5088 469.606C70.4127 471.269 69.6946 472.932 69.3545 474.633C69.2411 475.124 69.0899 475.351 68.9009 475.351C68.7119 475.351 68.334 475.162 67.8048 474.784C67.5025 474.557 67.3135 474.368 67.2757 474.255C67.2001 474.104 67.2001 473.839 67.2757 473.461C67.7671 470.438 68.3718 467.905 69.0899 465.865C68.1072 467.565 66.7088 469.417 65.008 471.458C63.4962 473.235 62.4001 474.368 61.7576 474.86C61.2663 475.2 60.8883 475.389 60.6615 475.389C60.4726 475.389 60.1324 475.2 59.7167 474.86C59.1119 474.482 58.8096 473.953 58.8096 473.272C58.8096 473.159 58.8096 473.008 58.8474 472.819C59.0741 471.042 59.7922 469.002 61.0773 466.62C62.3623 464.277 63.8363 462.274 65.5371 460.687C66.0663 460.157 66.5576 459.893 66.9733 459.931C67.3891 459.968 68.1828 460.498 69.3545 461.631C69.4678 461.745 69.5056 461.82 69.5056 461.934C69.5056 462.123 69.3922 462.236 69.1277 462.236C69.0521 462.236 68.9387 462.236 68.8631 462.198C68.0316 461.82 67.3891 461.858 66.8978 462.236C65.8395 463.068 64.63 464.504 63.3072 466.583C61.7954 468.964 60.8883 471.118 60.5482 473.046C60.5482 473.121 60.5482 473.197 60.5482 473.272C60.5482 473.575 60.6615 473.726 60.8883 473.726C61.2663 473.726 61.7576 473.461 62.2867 472.894C63.5718 471.609 64.9702 469.946 66.4442 467.981C67.956 465.94 68.9387 464.391 69.3545 463.332C69.6568 462.576 69.8836 462.009 69.9592 461.707C70.1104 461.178 70.2615 460.913 70.4505 460.913C70.6395 460.913 71.0174 461.178 71.66 461.631C71.9245 461.82 72.0757 462.009 72.0757 462.198C72.1135 462.35 72.0379 462.576 71.9245 462.954L71.8489 462.992Z" fill="white"/>
<path d="M61.3418 452.031C61.682 452.22 61.8332 452.409 61.8332 452.636C61.8332 452.787 61.7198 452.863 61.493 452.863C61.4552 452.863 61.3796 452.863 61.2662 452.825C61.1529 452.787 61.0773 452.787 61.0395 452.787C60.5859 452.787 60.0568 453.279 59.4521 454.261C58.8851 455.131 58.1292 457.058 57.1466 460.044C57.071 460.309 57.0332 460.46 57.0332 460.498C57.071 460.573 57.2222 460.649 57.4867 460.649C58.167 460.687 59.0741 460.687 60.208 460.573C60.5859 460.535 60.7749 460.724 60.7749 461.102C60.7749 461.367 60.6237 461.518 60.3214 461.594C60.0946 461.631 58.8096 461.745 56.504 461.934C55.1056 466.129 54.2741 469.682 53.9718 472.592C53.9718 472.743 53.9718 472.894 53.9718 473.008C53.9718 473.424 54.0851 473.613 54.2741 473.613C54.5765 473.613 55.5214 472.819 57.071 471.269C57.2599 471.08 57.4489 470.967 57.6001 470.967C57.7513 470.967 57.8269 471.043 57.8647 471.156C57.9025 471.307 57.8269 471.458 57.7135 471.647C56.7686 472.932 55.8615 474.028 54.9544 474.935C54.5765 475.313 54.2741 475.502 54.0096 475.502C53.745 475.502 53.367 475.313 52.8379 474.86C52.1954 474.671 51.8552 474.331 51.8552 473.764C51.8552 473.688 51.8552 473.575 51.893 473.461C52.3088 470.4 53.1403 466.583 54.3875 462.047C53.7828 461.972 53.2159 461.896 52.7245 461.783C52.4977 461.745 52.3844 461.594 52.3844 461.367C52.3844 461.102 52.4977 460.913 52.7245 460.876C52.9513 460.838 53.367 460.687 54.0096 460.46C54.3875 460.346 54.7655 460.157 55.1056 459.931C56.3529 455.962 57.2977 453.392 58.0159 452.22C58.4316 451.54 58.8474 451.238 59.3009 451.238C59.7166 451.238 60.397 451.465 61.2285 451.956L61.3418 452.031Z" fill="white"/>
<path d="M49.7007 462.765C49.4361 464.391 48.718 467.074 47.5464 470.816C47.8865 470.513 48.3401 469.946 48.9448 469.115C49.0204 469.002 49.096 468.964 49.1715 468.964C49.3605 468.964 49.3983 469.115 49.2471 469.455C49.1715 469.569 48.718 470.4 47.8109 471.912C47.1306 473.046 46.6015 474.066 46.2991 474.973C46.1857 475.238 45.9967 475.389 45.7322 475.389C45.4676 475.389 45.0897 475.238 44.5983 474.973C44.296 474.822 44.1448 474.671 44.1448 474.595C44.1448 474.52 44.2204 474.369 44.3338 474.142C44.9763 473.008 45.6566 471.118 46.4125 468.435C47.1306 465.865 47.5464 463.937 47.6219 462.652C47.6597 462.123 47.6219 461.858 47.4708 461.858C47.3574 461.858 47.2062 462.009 46.9038 462.274L45.8456 463.294C45.4676 463.672 45.2786 463.672 45.2786 463.37C45.2786 463.257 45.3542 463.143 45.4298 462.992C45.9589 462.198 46.5637 461.443 47.1684 460.762C47.3574 460.573 47.5464 460.46 47.6975 460.46C47.8865 460.46 48.1511 460.573 48.529 460.838C49.0582 460.989 49.3605 461.065 49.3983 461.102C49.6629 461.254 49.8141 461.594 49.8141 462.047C49.8141 462.274 49.7763 462.501 49.7385 462.803L49.7007 462.765Z" fill="white"/>
<path d="M52.1574 454.904C52.3464 455.055 52.422 455.206 52.422 455.395C52.422 455.735 51.9306 456.264 50.9479 457.02C50.3054 457.512 49.6629 457.663 49.0582 457.512C48.718 457.436 48.4157 457.323 48.1511 457.134C48.0755 457.058 47.9999 456.983 47.9621 456.907C47.9243 456.831 47.9243 456.756 47.9243 456.718C47.9621 456.68 48.0377 456.642 48.1511 456.68C49.2094 455.698 49.8897 455.017 50.2298 454.601C50.4944 454.299 50.6834 454.148 50.7968 454.148C50.9857 454.148 51.4393 454.413 52.1196 454.904H52.1574Z" fill="white"/>
<path d="M44.6361 461.442C44.6361 463.03 44.4472 464.504 44.0314 465.94C43.918 466.356 43.729 466.583 43.5023 466.583C43.3511 466.583 42.9731 466.356 42.444 465.865C42.1794 465.638 42.1039 465.298 42.2172 464.844C42.5574 463.748 42.7086 462.879 42.7086 462.236C42.7086 462.009 42.6708 461.896 42.5574 461.896C42.4062 461.896 42.1794 462.123 41.8771 462.539C39.4582 465.789 37.6818 469.417 36.5101 473.461C36.1322 474.746 35.792 475.389 35.5275 475.389C35.4141 475.389 34.9605 475.162 34.1668 474.746C33.7889 474.557 33.6377 474.142 33.7889 473.575C34.696 469.455 35.6787 465.94 36.7369 463.105C35.8676 464.05 35.3385 464.693 35.1117 465.033C35.0361 465.184 34.885 465.26 34.7338 465.26C34.5448 465.26 34.4314 465.184 34.4314 464.995C34.4314 464.882 34.4692 464.768 34.5826 464.655C35.1495 463.937 35.9054 462.879 36.8503 461.405C37.1527 460.876 37.4172 460.611 37.7196 460.611C37.9086 460.611 38.3621 460.762 38.9668 461.102C39.307 461.291 39.3826 461.556 39.1558 461.858C38.8913 462.198 38.4377 463.446 37.7196 465.524C37.0393 467.565 36.5857 469.191 36.3212 470.324C37.9086 466.696 39.685 463.483 41.6503 460.724C42.0283 460.195 42.3306 459.931 42.5574 459.931C42.7842 459.931 43.0487 460.082 43.4267 460.346C43.918 460.422 44.2204 460.498 44.3338 460.573C44.5227 460.724 44.6361 461.027 44.6361 461.442Z" fill="white"/>
<path d="M32.3527 469.833C29.5558 473.575 27.5905 475.427 26.4566 475.427C25.9275 475.427 25.2472 475.049 24.4157 474.255C23.5464 473.839 23.1306 473.272 23.1306 472.554C23.1306 472.441 23.1306 472.29 23.1684 472.139C23.3574 470.513 23.8109 468.699 24.4157 466.696C23.9999 466.469 23.7731 466.242 23.7731 466.053C23.7731 465.864 23.8865 465.789 24.1511 465.789C24.3401 465.789 24.529 465.827 24.718 465.94C25.7385 463.559 26.6834 461.858 27.4771 460.838C28.0062 460.157 28.4975 459.817 28.9133 459.817C29.1023 459.817 29.5936 460.006 30.3495 460.346C30.2739 459.968 30.3873 459.779 30.6519 459.704C30.6519 459.704 30.9164 459.704 31.4456 459.704C31.9369 459.704 32.2015 459.779 32.2015 459.968C32.2015 460.006 32.1637 460.12 32.1259 460.271C32.0881 460.422 32.0881 460.573 32.0881 460.724C32.0881 461.178 32.0881 461.707 32.0881 462.312C32.0881 462.954 32.1259 463.37 32.1259 463.597C32.1259 465.071 31.7479 466.129 30.9542 466.696C30.2361 467.225 29.4424 467.49 28.5353 467.49C28.0818 467.49 27.2881 467.339 26.192 467.112C26.0031 467.49 25.7763 468.208 25.5117 469.304C25.2094 470.664 25.0582 471.874 25.0582 472.932C25.0582 473.537 25.2472 473.877 25.6251 473.877C25.7763 473.877 25.9275 473.839 26.1542 473.764C27.4771 473.272 29.3668 471.761 31.7479 469.266C31.8991 469.115 32.0503 469.039 32.2015 469.039C32.4283 469.039 32.5416 469.153 32.5416 469.379C32.5416 469.531 32.5038 469.644 32.3527 469.795V469.833ZM30.3495 461.896C30.3495 461.442 30.2361 461.216 30.0472 461.216C29.9338 461.216 29.7448 461.291 29.4802 461.518C28.3464 462.463 27.3637 464.126 26.4944 466.469C26.7212 466.507 27.1369 466.545 27.7038 466.583C28.6487 466.62 29.329 466.394 29.7826 465.902C30.1227 465.562 30.3117 464.957 30.3495 464.126C30.3117 464.731 30.3117 464.013 30.3117 461.896H30.3495Z" fill="white"/>
<path d="M284.107 462.992C283.049 466.054 282.293 468.624 281.915 470.665C282.066 470.513 282.331 470.249 282.595 469.909C282.898 469.568 283.049 469.342 283.124 469.304C283.276 469.077 283.464 468.964 283.653 468.964C283.842 468.964 283.918 469.039 283.918 469.228C283.918 469.342 283.88 469.455 283.767 469.606C282.671 471.269 281.953 472.932 281.613 474.633C281.499 475.124 281.348 475.351 281.159 475.351C280.97 475.351 280.592 475.162 280.063 474.784C279.761 474.557 279.572 474.368 279.534 474.255C279.458 474.104 279.458 473.839 279.534 473.461C280.025 470.438 280.63 467.905 281.348 465.865C280.365 467.565 278.967 469.417 277.266 471.458C275.754 473.235 274.658 474.368 274.016 474.86C273.524 475.2 273.146 475.389 272.92 475.389C272.731 475.389 272.39 475.2 271.975 474.86C271.37 474.482 271.068 473.953 271.068 473.272C271.068 473.159 271.068 473.008 271.105 472.819C271.294 471.042 272.05 469.002 273.335 466.62C274.62 464.277 276.094 462.274 277.795 460.687C278.324 460.157 278.816 459.893 279.231 459.931C279.647 459.968 280.441 460.498 281.613 461.631C281.726 461.745 281.764 461.82 281.764 461.934C281.764 462.123 281.65 462.236 281.386 462.236C281.31 462.236 281.197 462.236 281.121 462.198C280.327 461.82 279.647 461.858 279.156 462.236C278.06 463.068 276.888 464.504 275.565 466.583C274.053 468.964 273.146 471.118 272.806 473.046C272.806 473.121 272.806 473.197 272.806 473.272C272.806 473.575 272.92 473.726 273.146 473.726C273.524 473.726 274.016 473.461 274.545 472.894C275.83 471.609 277.228 469.946 278.702 467.981C280.214 465.94 281.159 464.391 281.613 463.332C281.915 462.576 282.104 462.009 282.217 461.707C282.368 461.178 282.52 460.913 282.709 460.913C282.86 460.913 283.276 461.178 283.918 461.631C284.183 461.82 284.334 462.009 284.334 462.198C284.372 462.35 284.296 462.576 284.183 462.954L284.107 462.992Z" fill="white"/>
<path d="M270.236 462.765C269.972 464.391 269.254 467.074 268.082 470.816C268.422 470.513 268.876 469.946 269.48 469.115C269.556 469.002 269.632 468.964 269.707 468.964C269.896 468.964 269.934 469.115 269.783 469.455C269.745 469.569 269.254 470.4 268.347 471.912C267.666 473.046 267.137 474.066 266.835 474.973C266.721 475.238 266.532 475.389 266.268 475.389C266.003 475.389 265.625 475.238 265.134 474.973C264.832 474.822 264.68 474.671 264.68 474.595C264.68 474.52 264.756 474.369 264.869 474.142C265.512 473.008 266.192 471.118 266.948 468.435C267.666 465.865 268.082 463.937 268.158 462.652C268.195 462.123 268.12 461.858 268.006 461.858C267.893 461.858 267.742 462.009 267.439 462.274L266.381 463.294C266.003 463.672 265.814 463.672 265.814 463.37C265.814 463.257 265.852 463.143 265.965 462.992C266.495 462.198 267.099 461.443 267.704 460.762C267.893 460.573 268.082 460.46 268.233 460.46C268.422 460.46 268.687 460.573 269.027 460.838C269.556 460.989 269.858 461.065 269.896 461.102C270.161 461.254 270.274 461.594 270.274 462.047C270.274 462.274 270.236 462.501 270.199 462.803L270.236 462.765Z" fill="white"/>
<path d="M272.655 454.904C272.844 455.055 272.92 455.206 272.92 455.395C272.92 455.735 272.428 456.264 271.446 457.02C270.803 457.512 270.161 457.663 269.556 457.512C269.216 457.436 268.913 457.323 268.649 457.134C268.573 457.058 268.498 456.983 268.46 456.907C268.422 456.831 268.422 456.756 268.422 456.718C268.46 456.68 268.536 456.642 268.649 456.68C269.707 455.698 270.387 455.017 270.728 454.601C270.992 454.299 271.181 454.148 271.295 454.148C271.521 454.148 271.937 454.413 272.655 454.904Z" fill="white"/>
<path d="M266.872 452.031C267.213 452.22 267.364 452.409 267.364 452.636C267.364 452.787 267.25 452.863 267.024 452.863C266.986 452.863 266.91 452.863 266.797 452.825C266.683 452.787 266.646 452.787 266.57 452.787C266.154 452.787 265.587 453.279 264.983 454.261C264.416 455.131 263.66 457.058 262.677 460.044C262.601 460.309 262.564 460.46 262.564 460.498C262.601 460.573 262.753 460.649 263.017 460.649C263.698 460.687 264.605 460.687 265.738 460.573C266.116 460.535 266.305 460.724 266.305 461.102C266.305 461.367 266.154 461.518 265.852 461.594C265.625 461.631 264.34 461.745 262.035 461.934C260.636 466.129 259.805 469.682 259.502 472.592C259.502 472.743 259.502 472.894 259.502 473.008C259.502 473.424 259.616 473.613 259.805 473.613C260.107 473.613 261.052 472.819 262.601 471.269C262.79 471.08 262.979 470.967 263.131 470.967C263.282 470.967 263.357 471.043 263.395 471.156C263.433 471.307 263.357 471.458 263.244 471.647C262.299 472.932 261.392 474.028 260.485 474.935C260.107 475.313 259.805 475.502 259.54 475.502C259.276 475.502 258.898 475.313 258.368 474.86C257.688 474.671 257.386 474.331 257.386 473.764C257.386 473.688 257.386 473.575 257.424 473.461C257.839 470.4 258.671 466.583 259.918 462.047C259.313 461.972 258.746 461.896 258.255 461.783C258.028 461.745 257.915 461.594 257.915 461.367C257.915 461.102 258.028 460.913 258.255 460.876C258.482 460.838 258.898 460.687 259.54 460.46C259.918 460.346 260.296 460.157 260.636 459.931C261.883 455.962 262.828 453.392 263.546 452.22C263.962 451.54 264.378 451.238 264.831 451.238C265.285 451.238 265.927 451.465 266.759 451.956L266.872 452.031Z" fill="white"/>
<path d="M255.231 462.765C254.967 464.391 254.249 467.074 253.077 470.816C253.417 470.513 253.871 469.946 254.476 469.115C254.551 469.002 254.627 468.964 254.702 468.964C254.891 468.964 254.929 469.115 254.778 469.455C254.74 469.569 254.249 470.4 253.342 471.912C252.661 473.046 252.132 474.066 251.83 474.973C251.716 475.238 251.528 475.389 251.263 475.389C250.998 475.389 250.62 475.238 250.129 474.973C249.827 474.822 249.676 474.671 249.676 474.595C249.676 474.52 249.751 474.369 249.865 474.142C250.507 473.008 251.187 471.118 251.943 468.435C252.661 465.865 253.077 463.937 253.19 462.652C253.228 462.123 253.153 461.858 253.039 461.858C252.926 461.858 252.737 462.009 252.472 462.274L251.376 463.294C250.998 463.672 250.809 463.672 250.809 463.37C250.809 463.257 250.847 463.143 250.961 462.992C251.49 462.198 252.094 461.443 252.699 460.762C252.888 460.573 253.077 460.46 253.228 460.46C253.417 460.46 253.682 460.573 254.06 460.838C254.589 460.989 254.891 461.065 254.929 461.102C255.194 461.254 255.307 461.594 255.307 462.047C255.307 462.274 255.269 462.501 255.231 462.803V462.765Z" fill="white"/>
<path d="M257.65 454.904C257.839 455.055 257.915 455.206 257.915 455.395C257.915 455.735 257.424 456.264 256.441 457.02C255.798 457.512 255.156 457.663 254.551 457.512C254.211 457.436 253.909 457.323 253.644 457.134C253.568 457.058 253.493 456.983 253.455 456.907C253.417 456.831 253.417 456.756 253.417 456.718C253.455 456.68 253.531 456.642 253.644 456.68C254.702 455.698 255.383 455.017 255.723 454.601C255.987 454.299 256.176 454.148 256.29 454.148C256.479 454.148 256.932 454.413 257.65 454.904Z" fill="white"/>
<path d="M251.868 452.031C252.208 452.22 252.359 452.409 252.359 452.636C252.359 452.787 252.246 452.863 252.019 452.863C251.981 452.863 251.906 452.863 251.792 452.825C251.679 452.787 251.641 452.787 251.565 452.787C251.112 452.787 250.583 453.279 249.978 454.261C249.411 455.131 248.655 457.058 247.672 460.044C247.597 460.309 247.559 460.46 247.559 460.498C247.597 460.573 247.748 460.649 248.013 460.649C248.693 460.687 249.6 460.687 250.734 460.573C251.112 460.535 251.301 460.724 251.301 461.102C251.301 461.367 251.15 461.518 250.847 461.594C250.62 461.631 249.335 461.745 247.03 461.934C245.631 466.129 244.8 469.682 244.498 472.592C244.498 472.743 244.498 472.894 244.498 473.008C244.498 473.424 244.611 473.613 244.8 473.613C245.102 473.613 246.047 472.819 247.597 471.269C247.786 471.08 247.975 470.967 248.126 470.967C248.277 470.967 248.353 471.043 248.391 471.156C248.428 471.307 248.353 471.458 248.239 471.647C247.294 472.932 246.387 474.028 245.48 474.935C245.102 475.313 244.8 475.502 244.535 475.502C244.271 475.502 243.893 475.313 243.364 474.86C242.721 474.671 242.381 474.331 242.381 473.764C242.381 473.688 242.381 473.575 242.419 473.461C242.835 470.4 243.666 466.583 244.913 462.047C244.309 461.972 243.742 461.896 243.25 461.783C243.024 461.745 242.91 461.594 242.91 461.367C242.91 461.102 243.024 460.913 243.25 460.876C243.477 460.838 243.893 460.687 244.535 460.46C244.913 460.346 245.291 460.157 245.631 459.931C246.879 455.962 247.824 453.392 248.542 452.22C248.957 451.54 249.373 451.238 249.827 451.238C250.28 451.238 250.923 451.465 251.754 451.956L251.868 452.031Z" fill="white"/>
<path d="M238.866 470.891C238.904 472.327 238.148 473.31 236.561 473.839C236.372 474.331 236.183 474.709 235.994 474.898C235.729 475.2 235.313 475.351 234.822 475.389C234.482 475.427 234.142 475.389 233.764 475.351C233.083 475.238 232.252 475.124 231.269 474.935C231.005 474.898 230.816 474.709 230.778 474.406C230.816 474.066 231.156 473.877 231.761 473.839C232.592 473.801 233.801 473.65 235.389 473.386C235.994 473.235 236.409 472.894 236.674 472.327C236.825 472.025 236.901 471.685 236.901 471.269C236.901 470.513 236.523 469.19 235.805 467.301C235.086 465.449 234.746 464.201 234.822 463.597C234.898 462.123 236.258 461.064 238.79 460.46C239.055 460.384 239.168 460.498 239.168 460.762C239.168 460.913 239.093 461.027 238.904 461.102C237.657 461.669 237.052 462.35 237.052 463.181C237.052 463.521 237.09 463.899 237.241 464.39C237.354 464.882 237.694 466.053 238.261 467.868C238.677 469.19 238.904 470.211 238.904 470.891H238.866Z" fill="white"/>
<path d="M241.625 460.573C241.625 461.102 241.474 461.972 241.209 463.181C241.096 463.597 240.983 463.861 240.869 463.975C240.794 464.05 240.605 464.126 240.265 464.239C239.849 464.391 239.584 464.504 239.471 464.504C239.282 464.504 239.206 464.391 239.206 464.126C239.206 464.013 239.206 463.824 239.282 463.597C239.546 462.425 239.66 461.594 239.584 461.14C239.546 460.687 239.66 460.384 239.962 460.271C240.529 459.969 240.907 459.817 241.058 459.817C241.398 459.817 241.587 460.082 241.587 460.573H241.625Z" fill="white"/>
<path d="M232.592 461.934C231.08 464.882 229.909 468.359 229.153 472.365C229.493 471.761 229.871 471.042 230.324 470.135C230.362 469.984 230.476 469.871 230.589 469.871C230.778 469.871 230.854 469.984 230.854 470.211C230.854 470.287 230.854 470.362 230.816 470.438C230.098 472.176 229.606 473.537 229.38 474.482C229.228 475.087 229.039 475.389 228.813 475.389C228.586 475.389 228.132 475.162 227.452 474.671C227.112 474.406 226.961 473.953 227.074 473.272C227.565 470.664 228.132 468.397 228.813 466.469C226.583 470.249 224.731 473.008 223.219 474.784C222.879 475.162 222.539 475.389 222.123 475.389C221.783 475.389 221.405 475.238 220.989 474.973C220.195 474.822 219.78 474.406 219.78 473.688C219.78 473.575 219.78 473.424 219.817 473.272C220.12 469.833 220.687 466.998 221.594 464.731C221.405 464.92 221.102 465.184 220.724 465.562C220.573 465.675 220.46 465.713 220.384 465.675C220.309 465.6 220.309 465.449 220.422 465.26C221.027 464.315 221.405 463.71 221.518 463.408C221.896 462.463 222.236 461.745 222.652 461.253C222.841 460.989 223.068 460.838 223.295 460.838C223.597 460.838 224.05 461.027 224.655 461.405C224.806 461.518 224.92 461.631 224.92 461.745C224.92 461.745 224.806 461.934 224.542 462.35C223.975 463.257 223.37 464.882 222.69 467.15C221.972 469.644 221.632 471.685 221.632 473.235C221.632 473.764 221.745 473.99 221.934 473.99C222.123 473.99 222.425 473.764 222.841 473.31C223.71 472.327 224.995 470.475 226.696 467.754C228.17 465.335 229.077 463.786 229.38 463.068C229.909 461.858 230.324 461.14 230.627 460.913C230.854 460.762 231.005 460.687 231.194 460.687C231.345 460.687 231.647 460.8 232.139 461.064C232.592 461.329 232.819 461.518 232.819 461.631C232.819 461.669 232.781 461.707 232.706 461.783C232.63 461.858 232.554 461.896 232.517 461.972L232.592 461.934Z" fill="white"/>
<path d="M219.175 456.567C218.759 460.044 217.701 463.937 216 468.208C213.997 473.272 212.031 475.767 210.142 475.805C209.008 475.805 207.609 475.2 205.984 473.915C205.871 473.802 205.795 473.65 205.795 473.499C205.795 473.083 205.984 472.857 206.362 472.857C206.438 472.857 206.551 472.894 206.627 472.932C207.609 473.461 208.479 473.726 209.159 473.726C210.671 473.764 212.372 471.42 214.224 466.62C215.962 462.009 216.945 457.89 217.058 454.224C217.096 453.052 216.529 452.447 215.357 452.447C215.168 452.447 214.979 452.447 214.753 452.485C213.846 452.598 212.825 453.354 211.691 454.715C210.406 456.227 209.537 457.928 209.008 459.855C208.932 460.12 208.894 460.346 208.894 460.573C208.894 461.027 209.046 461.405 209.31 461.783C209.575 462.047 209.839 462.35 210.104 462.614C210.217 462.765 210.293 462.879 210.293 462.992C210.293 463.219 210.104 463.332 209.764 463.332C209.612 463.332 209.499 463.294 209.424 463.257C208.441 462.652 207.761 462.161 207.383 461.745C206.929 461.291 206.74 460.762 206.74 460.157C206.74 459.591 206.929 458.835 207.345 457.852C207.949 456.378 208.819 454.98 210.028 453.581C211.162 452.258 212.183 451.389 213.09 451.011C213.505 450.822 214.375 450.935 215.66 451.313C215.735 451.2 215.849 451.162 216.038 451.162C216.491 451.162 217.361 451.616 218.683 452.523C219.288 452.901 219.439 454.261 219.175 456.529V456.567Z" fill="white"/>
<path d="M194.797 470.854C194.872 471.005 194.759 471.42 194.419 472.063C193.474 473.953 192.68 475.88 192.076 477.808C192.34 477.921 192.227 478.148 191.773 478.413C191.358 478.715 190.942 478.828 190.526 478.753C190.375 478.715 190.261 478.564 190.261 478.299C190.261 477.959 190.45 477.09 190.791 475.767C191.32 473.839 191.811 472.554 192.265 471.912C192.454 471.647 192.718 471.458 193.021 471.307C194.079 470.929 194.646 470.778 194.684 470.891L194.797 470.854Z" fill="white"/>
<path d="M26.9857 452.031C27.1369 452.258 27.2125 452.447 27.2125 452.636C27.2125 452.863 26.7212 453.354 25.7007 454.035C24.3023 455.773 22.3747 458.721 19.9558 462.917C17.3479 467.414 15.5716 470.929 14.5511 473.575C14.5889 473.839 14.6267 474.066 14.6267 474.18C14.6267 474.595 14.2487 474.935 13.5306 475.313C13.2282 475.465 13.0015 475.54 12.7747 475.54C12.4723 475.54 12.0944 475.276 11.6408 474.709C11.4519 474.482 11.3763 474.255 11.3763 474.028C11.3763 473.688 11.5275 473.348 11.8676 473.046C11.792 469.039 11.3007 465.071 10.318 461.102C9.44872 457.587 8.54163 455.093 7.52116 453.581C7.181 453.052 6.72746 452.787 6.12273 452.787C5.48021 452.787 4.61092 453.241 3.43927 454.148C3.32588 454.224 3.1747 454.299 2.98572 454.299C2.64557 454.299 2.49438 454.186 2.49438 453.921C2.49438 453.77 2.56998 453.619 2.75895 453.43C3.74163 452.409 4.95108 451.427 6.42509 450.595C6.95423 450.293 7.36998 450.142 7.67234 450.142C8.20147 450.142 8.73061 450.557 9.25974 451.351C11.603 454.942 13.266 461.367 14.1731 470.589C14.9668 468.888 16.5164 465.978 18.7464 461.858C20.8251 458.041 21.9967 455.924 22.2613 455.509C22.0345 455.546 21.8078 455.32 21.581 454.828C21.3542 454.337 21.203 453.846 21.203 453.354C21.203 452.976 21.3164 452.787 21.5432 452.787C21.8078 452.787 22.0723 452.787 22.3369 452.787C22.6393 452.712 23.055 452.447 23.5464 451.994C23.8865 451.691 24.2267 451.389 24.529 451.087C24.8692 450.86 25.096 450.709 25.2849 450.709C25.7385 450.709 26.2676 451.162 26.9101 452.107L26.9857 452.031Z" fill="white"/>
<path d="M0 433.247H286.828V435.364H0V433.247Z" fill="white"/>
</svg>
